<mxfile host="app.diagrams.net" modified="2021-06-15T02:11:09.485Z" agent="5.0 (Macintosh; Intel Mac OS X 10_15_7) AppleWebKit/537.36 (KHTML, like Gecko) Chrome/90.0.4430.93 Safari/537.36" etag="atIVIy9gOQKDjtXDTmWZ" version="14.7.8" type="github">
  <diagram id="7npImJWPo0L2v0BpM6VP" name="Page-1">
    <mxGraphModel dx="1426" dy="826" grid="1" gridSize="10" guides="1" tooltips="1" connect="1" arrows="1" fold="1" page="1" pageScale="1" pageWidth="850" pageHeight="1100" math="0" shadow="0">
      <root>
        <mxCell id="0" />
        <mxCell id="1" parent="0" />
        <mxCell id="dKNA6s6LciPV7q4xxVYE-9" style="edgeStyle=orthogonalEdgeStyle;rounded=0;orthogonalLoop=1;jettySize=auto;html=1;exitX=0.5;exitY=1;exitDx=0;exitDy=0;" edge="1" parent="1" source="dKNA6s6LciPV7q4xxVYE-2" target="dKNA6s6LciPV7q4xxVYE-7">
          <mxGeometry relative="1" as="geometry" />
        </mxCell>
        <mxCell id="dKNA6s6LciPV7q4xxVYE-2" value="Project" style="rounded=0;whiteSpace=wrap;html=1;" vertex="1" parent="1">
          <mxGeometry x="100" y="180" width="120" height="60" as="geometry" />
        </mxCell>
        <mxCell id="dKNA6s6LciPV7q4xxVYE-11" style="edgeStyle=orthogonalEdgeStyle;rounded=0;orthogonalLoop=1;jettySize=auto;html=1;exitX=0.5;exitY=1;exitDx=0;exitDy=0;" edge="1" parent="1" source="dKNA6s6LciPV7q4xxVYE-7" target="dKNA6s6LciPV7q4xxVYE-10">
          <mxGeometry relative="1" as="geometry" />
        </mxCell>
        <mxCell id="dKNA6s6LciPV7q4xxVYE-7" value="Todo Item&lt;br&gt;" style="rounded=0;whiteSpace=wrap;html=1;" vertex="1" parent="1">
          <mxGeometry x="100" y="380" width="120" height="60" as="geometry" />
        </mxCell>
        <mxCell id="dKNA6s6LciPV7q4xxVYE-12" style="edgeStyle=orthogonalEdgeStyle;rounded=0;orthogonalLoop=1;jettySize=auto;html=1;exitX=1;exitY=0.25;exitDx=0;exitDy=0;entryX=1;entryY=0.5;entryDx=0;entryDy=0;" edge="1" parent="1" source="dKNA6s6LciPV7q4xxVYE-10" target="dKNA6s6LciPV7q4xxVYE-7">
          <mxGeometry relative="1" as="geometry" />
        </mxCell>
        <mxCell id="dKNA6s6LciPV7q4xxVYE-10" value="Sidebar" style="rounded=0;whiteSpace=wrap;html=1;" vertex="1" parent="1">
          <mxGeometry x="615" y="490" width="120" height="60" as="geometry" />
        </mxCell>
        <mxCell id="dKNA6s6LciPV7q4xxVYE-15" style="edgeStyle=orthogonalEdgeStyle;rounded=0;orthogonalLoop=1;jettySize=auto;html=1;exitX=0;exitY=0.75;exitDx=0;exitDy=0;entryX=1;entryY=0.5;entryDx=0;entryDy=0;" edge="1" parent="1" source="dKNA6s6LciPV7q4xxVYE-14" target="dKNA6s6LciPV7q4xxVYE-2">
          <mxGeometry relative="1" as="geometry" />
        </mxCell>
        <mxCell id="dKNA6s6LciPV7q4xxVYE-26" value="Adds new todo item and updates the number of todos" style="edgeLabel;html=1;align=center;verticalAlign=middle;resizable=0;points=[];" vertex="1" connectable="0" parent="dKNA6s6LciPV7q4xxVYE-15">
          <mxGeometry x="-0.2177" relative="1" as="geometry">
            <mxPoint as="offset" />
          </mxGeometry>
        </mxCell>
        <mxCell id="dKNA6s6LciPV7q4xxVYE-19" style="edgeStyle=orthogonalEdgeStyle;rounded=0;orthogonalLoop=1;jettySize=auto;html=1;exitX=0.25;exitY=1;exitDx=0;exitDy=0;entryX=1;entryY=0.25;entryDx=0;entryDy=0;" edge="1" parent="1" source="dKNA6s6LciPV7q4xxVYE-14" target="dKNA6s6LciPV7q4xxVYE-7">
          <mxGeometry relative="1" as="geometry" />
        </mxCell>
        <mxCell id="dKNA6s6LciPV7q4xxVYE-14" value="New Todo Button" style="rounded=0;whiteSpace=wrap;html=1;" vertex="1" parent="1">
          <mxGeometry x="610" y="250" width="130" height="30" as="geometry" />
        </mxCell>
        <mxCell id="dKNA6s6LciPV7q4xxVYE-23" style="edgeStyle=orthogonalEdgeStyle;rounded=0;orthogonalLoop=1;jettySize=auto;html=1;exitX=0.25;exitY=0;exitDx=0;exitDy=0;entryX=1;entryY=0.75;entryDx=0;entryDy=0;" edge="1" parent="1" source="dKNA6s6LciPV7q4xxVYE-16" target="dKNA6s6LciPV7q4xxVYE-20">
          <mxGeometry relative="1" as="geometry" />
        </mxCell>
        <mxCell id="dKNA6s6LciPV7q4xxVYE-24" style="edgeStyle=orthogonalEdgeStyle;rounded=0;orthogonalLoop=1;jettySize=auto;html=1;exitX=0;exitY=0.5;exitDx=0;exitDy=0;entryX=1.008;entryY=0.133;entryDx=0;entryDy=0;entryPerimeter=0;" edge="1" parent="1" source="dKNA6s6LciPV7q4xxVYE-16" target="dKNA6s6LciPV7q4xxVYE-2">
          <mxGeometry relative="1" as="geometry" />
        </mxCell>
        <mxCell id="dKNA6s6LciPV7q4xxVYE-16" value="New Project" style="rounded=0;whiteSpace=wrap;html=1;" vertex="1" parent="1">
          <mxGeometry x="610" y="170" width="130" height="30" as="geometry" />
        </mxCell>
        <mxCell id="dKNA6s6LciPV7q4xxVYE-21" style="edgeStyle=orthogonalEdgeStyle;rounded=0;orthogonalLoop=1;jettySize=auto;html=1;exitX=0.5;exitY=1;exitDx=0;exitDy=0;entryX=0.5;entryY=0;entryDx=0;entryDy=0;" edge="1" parent="1" source="dKNA6s6LciPV7q4xxVYE-20" target="dKNA6s6LciPV7q4xxVYE-2">
          <mxGeometry relative="1" as="geometry" />
        </mxCell>
        <mxCell id="dKNA6s6LciPV7q4xxVYE-20" value="Project List" style="rounded=0;whiteSpace=wrap;html=1;" vertex="1" parent="1">
          <mxGeometry x="100" y="70" width="120" height="60" as="geometry" />
        </mxCell>
      </root>
    </mxGraphModel>
  </diagram>
</mxfile>
